<svg xmlns="http://www.w3.org/2000/svg" id="prefix__facebook_1_" width="51.5" height="51.5" data-name="facebook (1)" viewBox="0 0 51.5 51.5">
    <defs>
        <style>
            .prefix__cls-1{fill:#f7caa9}
        </style>
    </defs>
    <path id="prefix__Trazado_74" d="M291.5 508.668q-.322.052-.646.1.326-.048.646-.1zm0 0" class="prefix__cls-1" data-name="Trazado 74" transform="translate(-261.599 -457.503)"/>
    <path id="prefix__Trazado_75" d="M299.648 507.793l-.308.054zm0 0" class="prefix__cls-1" data-name="Trazado 75" transform="translate(-269.23 -456.716)"/>
    <path id="prefix__Trazado_76" d="M278.367 510.34q-.377.042-.757.075.38-.032.757-.075zm0 0" class="prefix__cls-1" data-name="Trazado 76" transform="translate(-249.686 -459.007)"/>
    <path id="prefix__Trazado_77" d="M286.808 509.738l-.363.045c.121-.014.243-.029.363-.045zm0 0" class="prefix__cls-1" data-name="Trazado 77" transform="translate(-257.633 -458.466)"/>
    <path id="prefix__Trazado_78" d="M306.936 506.41l-.272.057zm0 0" class="prefix__cls-1" data-name="Trazado 78" transform="translate(-275.818 -455.472)"/>
    <path id="prefix__Trazado_79" d="M324.7 502.113l-.219.061zm0 0" class="prefix__cls-1" data-name="Trazado 79" transform="translate(-291.846 -451.608)"/>
    <path id="prefix__Trazado_80" d="M319.3 503.543l-.239.062zm0 0" class="prefix__cls-1" data-name="Trazado 80" transform="translate(-286.966 -452.894)"/>
    <path id="prefix__Trazado_81" d="M312.32 505.254l-.254.057zm0 0" class="prefix__cls-1" data-name="Trazado 81" transform="translate(-280.677 -454.432)"/>
    <path id="prefix__Trazado_82" d="M273.888 511.09q-.2.017-.407.031.203-.014.407-.031zm0 0" class="prefix__cls-1" data-name="Trazado 82" transform="translate(-245.972 -459.681)"/>
    <path id="prefix__Trazado_83" d="M51.5 25.75A25.75 25.75 0 1 0 25.75 51.5c.151 0 .3 0 .453-.006V31.449H20.67V25h5.53v-4.743c0-5.5 3.359-8.5 8.267-8.5a45.54 45.54 0 0 1 4.96.253v5.751h-3.382c-2.67 0-3.187 1.269-3.187 3.131V25h6.385l-.832 6.447h-5.553v19.058A25.764 25.764 0 0 0 51.5 25.75zm0 0" class="prefix__cls-1" data-name="Trazado 83"/>
    <path id="prefix__Trazado_84" d="M265.7 511.43q-.4.026-.807.04.407-.014.807-.04zm0 0" class="prefix__cls-1" data-name="Trazado 84" transform="translate(-238.246 -459.987)"/>
    <path id="prefix__Trazado_85" d="M260.931 511.836q-.213.007-.427.011.214-.004.427-.011zm0 0" class="prefix__cls-1" data-name="Trazado 85" transform="translate(-234.301 -460.352)"/>
</svg>
