<svg id="Capa_1" data-name="Capa 1" xmlns="http://www.w3.org/2000/svg" viewBox="0 0 430.43 169.51"><defs><style>.cls-1{fill:#f7cba9;}.cls-2{fill:#1d1d1b;}</style></defs><path class="cls-1" d="M40.78,188.15A16.3,16.3,0,0,1,45.63,176a16.49,16.49,0,0,1,12-4.75H85.15a63.61,63.61,0,0,1,25.79,5.28,66.9,66.9,0,0,1,20.95,14.26,67.85,67.85,0,0,1,14.08,21,63,63,0,0,1,5.2,25.35A64,64,0,0,1,146,262.7a66.47,66.47,0,0,1-35,35.3,63.61,63.61,0,0,1-25.79,5.28H56.8A14.52,14.52,0,0,1,50.73,302a17.26,17.26,0,0,1-8.63-8.62,14.57,14.57,0,0,1-1.32-6.08ZM71.24,201.7v71.13H85.15a37.66,37.66,0,0,0,14.26-2.64,33.26,33.26,0,0,0,18.66-18.66,38.15,38.15,0,0,0,2.64-14.44,40.06,40.06,0,0,0-2.46-14.26,32,32,0,0,0-7-11.18,32.54,32.54,0,0,0-11-7.31A37,37,0,0,0,86,201.7Z" transform="translate(-40.78 -171.25)"/><path class="cls-1" d="M157.33,259.27a43.44,43.44,0,0,1,3.61-17.6,46.33,46.33,0,0,1,9.77-14.44,46.81,46.81,0,0,1,14.35-9.77,43,43,0,0,1,17.51-3.61,46.28,46.28,0,0,1,21,4.93,13.16,13.16,0,0,1,10.39-4.4h1.41q7.22.7,10,5.81a22.55,22.55,0,0,1,2.82,11.09v56.16a23.87,23.87,0,0,1-.79,6.16A17.68,17.68,0,0,1,245,299a11.7,11.7,0,0,1-4.14,3.79,12.1,12.1,0,0,1-5.89,1.4h-1.06a13.4,13.4,0,0,1-10.39-4.22,37.29,37.29,0,0,1-9.94,3.61,52.94,52.94,0,0,1-11,1.14,42.82,42.82,0,0,1-17.51-3.61,46.3,46.3,0,0,1-24.12-24.2A43.53,43.53,0,0,1,157.33,259.27Zm28.52,0a16.59,16.59,0,0,0,4.84,12.24,17.33,17.33,0,0,0,24,0,18.13,18.13,0,0,0,0-24.47,17.31,17.31,0,0,0-24,0A16.55,16.55,0,0,0,185.85,259.27Z" transform="translate(-40.78 -171.25)"/><path class="cls-1" d="M262.78,196.25q0-8.81,4.22-12.86a14.48,14.48,0,0,1,10.39-4,13.76,13.76,0,0,1,9.95,4q4.13,4.06,4.13,12.86v91q0,8.81-4.13,12.77a13.89,13.89,0,0,1-9.95,4A14.63,14.63,0,0,1,267,300q-4.22-4-4.22-12.77Z" transform="translate(-40.78 -171.25)"/><path class="cls-1" d="M382.31,288.67q0,8.44-4.22,12.24a14.78,14.78,0,0,1-10.21,3.78,18.63,18.63,0,0,1-5.2-.7,10.16,10.16,0,0,1-4.31-2.64,26.37,26.37,0,0,1-7.74,2.64,47.35,47.35,0,0,1-7.93.7q-18.84,0-29.22-10.21t-10.39-29.05v-34q0-8.79,4.14-12.76a14.09,14.09,0,0,1,10.12-4,14.31,14.31,0,0,1,10.3,4q4.14,4,4.14,12.76v33.63A10.82,10.82,0,0,0,342.7,276a10.8,10.8,0,0,0,7.4-2.82,10.28,10.28,0,0,0,3.52-7V231.45q0-8.44,4.22-12.67a13.5,13.5,0,0,1,9.86-4.22,14.5,14.5,0,0,1,10.3,3.69q4,3.7,4.31,13.2ZM359.07,183.22a11,11,0,0,1,4.41,3.87,9.39,9.39,0,0,1,1.58,5.11,16,16,0,0,1-.88,5.1,16.91,16.91,0,0,1-2.46,4.76,14.59,14.59,0,0,1-3.79,3.52,8.79,8.79,0,0,1-4.84,1.4,9,9,0,0,1-3.7-.7L329,198.36q-8.45-3-8.45-12.32a12.23,12.23,0,0,1,.88-4.41,14.37,14.37,0,0,1,6.16-7.21,9,9,0,0,1,4.58-1.24,14.55,14.55,0,0,1,3.26.44c1.23.3,2.55.68,4,1.15Z" transform="translate(-40.78 -171.25)"/><path class="cls-1" d="M471.22,288.67q0,8.44-4.23,12.24a14.78,14.78,0,0,1-10.21,3.78,18.5,18.5,0,0,1-5.19-.7,10.13,10.13,0,0,1-4.32-2.64,26.28,26.28,0,0,1-7.74,2.64,47.26,47.26,0,0,1-7.93.7q-18.84,0-29.22-10.21T392,265.43v-34q0-8.79,4.14-12.76a14.09,14.09,0,0,1,10.12-4,14.31,14.31,0,0,1,10.3,4q4.14,4,4.14,12.76v33.63A10.82,10.82,0,0,0,431.6,276a10.78,10.78,0,0,0,7.4-2.82,10.28,10.28,0,0,0,3.52-7V231.45q0-8.44,4.22-12.67a13.51,13.51,0,0,1,9.86-4.22,14.5,14.5,0,0,1,10.3,3.69q4,3.7,4.32,13.2ZM435.13,174.94a27,27,0,0,1,4-1.32,14.4,14.4,0,0,1,3.25-.44,8.6,8.6,0,0,1,4.4,1.24,14.07,14.07,0,0,1,3.7,3.08,15.5,15.5,0,0,1,2.55,4.13,11.25,11.25,0,0,1,1,4.41q0,9.33-8.45,12.32l-17.43,6.69c-1.29.47-2.35.88-3.16,1.23a11.26,11.26,0,0,1-4.05.53,8.47,8.47,0,0,1-4.58-1.32,13.09,13.09,0,0,1-3.61-3.35,17.31,17.31,0,0,1-3.26-9.94,9.33,9.33,0,0,1,1.59-5.11,10.86,10.86,0,0,1,4.4-3.87l1.41-.71Z" transform="translate(-40.78 -171.25)"/><path class="cls-2" d="M311.58,330.19H468" transform="translate(-40.78 -171.25)"/><rect class="cls-1" x="270.8" y="148.38" width="156.38" height="21.13"/></svg>